<svg xmlns="http://www.w3.org/2000/svg" xmlns:xlink="http://www.w3.org/1999/xlink" viewBox="0 0 553.21 234.53"><defs><style>.cls-1{fill:url(#Nova_amostra_de_gradiente_2);}</style><linearGradient id="Nova_amostra_de_gradiente_2" y1="117.27" x2="553.21" y2="117.27" gradientUnits="userSpaceOnUse"><stop offset="0" stop-color="#fe8c00"/><stop offset="0.15" stop-color="#fc7300"/><stop offset="0.36" stop-color="#fa5800"/><stop offset="0.56" stop-color="#f94500"/><stop offset="0.77" stop-color="#f83a00"/><stop offset="1" stop-color="#f83600"/></linearGradient></defs><title>logo-full-gradient-dark</title><g id="Layer_2" data-name="Layer 2"><g id="svg2"><path class="cls-1" d="M152,122.42a6.07,6.07,0,0,0-5.17-1c-1.9-10.62-9.05-35.28-35.23-48a73.88,73.88,0,0,0-22.27-6.64V48.41c9.67,2.73,17.91,4.25,18,4.27l1,.17-6-12.54,23.71,16.36.63-.78c-.13-.12-13.11-12.7-15.17-22.21-.37-1.73-.65-3.41-.93-5-1.19-7.13-2.22-13.28-10.14-20C78.72-9.75,63.75,6.91,63.64,7S51.88,18,57.33,31.21C58.84,34.89,63.46,38.5,71,42V66.59A74.18,74.18,0,0,0,48.2,73.07c-26.81,12.64-34,37.65-35.95,48.46a6.13,6.13,0,0,0-5.65.89c-6.76,4.91-8.18,24-4.94,37.73,2.65,11.23,8,18.07,15,19.24l.28,0,2.65,30.89a2.11,2.11,0,0,0,.48,1.14c.56.63,13.87,15.67,44.36,22.92l.68.12a2.19,2.19,0,0,0,.36,0H94.3l.35,0,.56-.1c30.36-7.22,43.7-22.26,44.25-22.9a1.94,1.94,0,0,0,.48-1.14l2.67-31.1c6.71-1.48,11.8-8.24,14.36-19.11C160.22,146.39,158.8,127.33,152,122.42ZM129.8,180.9a2,2,0,0,0-1.61-.55l-40,4.23a2,2,0,0,0-1.8,2V193H76V186.9A2,2,0,0,0,74.58,185l-41-12A2,2,0,0,0,31,175l1,11-10.89-4.95-.46-5.36-.25-2.55c.44-3.48,1.37-8.39,2.07-11.9l2.17-10c.33-1.27.62-2.32.87-3.21,1.4-5.1,1.55-6-1.45-8.88-.7-.67-1.58-1.5-2.7-2.75l-.42-.5-.39.31h0l.31-.4-.48-.63a50.43,50.43,0,0,1-4.55-7.49l-.17-1.65c.1-1.34,2.84-32.95,31.85-48.21a33.92,33.92,0,0,0,64.21,0c28.93,15.28,31.68,46.84,31.78,48.1v.13a43.69,43.69,0,0,1-6.21,10.31c-1.12,1.25-2,2.07-2.7,2.75-3,2.86-2.86,3.78-1.45,8.88.25.89.54,1.94.87,3.21.67,2.56,4.85,20.59,4.74,25,0,.2,0,.4,0,.6s0,.42,0,.6l-.24,2.8L130,187.52l.4-5A2.06,2.06,0,0,0,129.8,180.9Zm-97.39,9.74,1.19,13.05a2,2,0,0,0,1.84,1.81l38.43,2.93a2,2,0,0,0,2.15-2V197H86.34v9.07a2,2,0,0,0,2.16,2l38.43-2.94a2,2,0,0,0,1.84-1.83l.79-10.2L138,186l-2,23.38c-2.65,2.73-15.69,15-41.63,21.16l-.23,0H65.69l-.43-.07c-26-6.19-39.08-18.45-41.73-21.18l-2-23.61ZM75,59.34v-11l9.14,4.24Zm0,6.89V60.85l10.33-5.16V66.32c-1.77-.15-3.53-.22-5.23-.24h-.56C78.11,66.08,76.59,66.13,75,66.23ZM85.37,49.9l-9-4.18,1.26-1.08c2.4.88,5,1.75,7.76,2.6Zm99.51,16.43h23.83a31.68,31.68,0,0,1,11.41,2,23.08,23.08,0,0,1,8.79,5.93,27.07,27.07,0,0,1,5.61,9.88,43.32,43.32,0,0,1,2,13.82,43.49,43.49,0,0,1-2,13.82,27.07,27.07,0,0,1-5.61,9.88,23,23,0,0,1-8.79,5.93,31.46,31.46,0,0,1-11.41,2H184.88Zm23.8,51c4.1,0,7.34-1.14,9.69-3.44s3.52-6,3.52-11V93c0-5.08-1.16-8.76-3.52-11s-5.59-3.44-9.69-3.44H198.62v38.77h10.06Zm39.22,12.23V66.33h43V78.56H261.67V91.43h25.07v12.23H261.67v13.67h29.26v12.23h-43Zm71.68,0-20.39-63.2h13.95l9.43,30.34,5,19.83h.26l4.79-19.83L342,66.33h13.51L335,129.53ZM205.24,210.14q-7.78,0-13-2.94a29.3,29.3,0,0,1-8.93-7.84l4.08-3.36a25.87,25.87,0,0,0,7.57,6.88,20.5,20.5,0,0,0,10.46,2.44q7.35,0,11.28-3.5c2.63-2.33,4-5.56,4-9.74,0-3.87-1.11-6.7-3.36-8.53a21.79,21.79,0,0,0-9.43-4l-5.61-1.17q-9.06-1.82-13.14-6.06A15,15,0,0,1,185,161.49a16.86,16.86,0,0,1,1.46-7.28,13.66,13.66,0,0,1,4.13-5.21,19.21,19.21,0,0,1,6.44-3.18,30,30,0,0,1,8.28-1.09,25.69,25.69,0,0,1,11.95,2.54,22,22,0,0,1,8.05,7.15l-4.08,3a18.06,18.06,0,0,0-6.57-5.86,20.66,20.66,0,0,0-9.64-2q-6.8,0-10.72,2.94c-2.62,2-4,4.9-4,8.82q0,5.61,3.52,8.24a23.54,23.54,0,0,0,9.43,3.81L209,174.5c6.27,1.37,10.69,3.52,13.21,6.43A16,16,0,0,1,226,191.79q0,8.7-5.53,13.5C216.78,208.55,211.7,210.14,205.24,210.14Zm73-1.09-6.89-19.65h-26.9l-6.88,19.65h-5.43l22.37-63.21h7L284,209.05Zm-20.21-58h-.37l-11.86,33.6h24.1Zm85.27,1.8H343l-21.82,38.68-21.85-38.68h-.37v56.24h-5.24V145.84h7.41l20,35.59h.27l20-35.59h7.15v63.21H343.3V152.81Zm23.19-7v39.09a43.41,43.41,0,0,0,.83,9.11,15.79,15.79,0,0,0,2.72,6.35,11.21,11.21,0,0,0,5.09,3.71,21.65,21.65,0,0,0,7.78,1.22,21.14,21.14,0,0,0,7.73-1.22,12.24,12.24,0,0,0,5.09-3.71,15.15,15.15,0,0,0,2.75-6.35,43.46,43.46,0,0,0,.82-9.11V145.84h5.43v37.87a53.91,53.91,0,0,1-1.16,11.94,20.72,20.72,0,0,1-3.76,8.21,15.3,15.3,0,0,1-6.81,4.77,35.17,35.17,0,0,1-20.52,0,15,15,0,0,1-6.7-4.77,20,20,0,0,1-3.63-8.21,57.8,57.8,0,0,1-1.08-11.94V145.84Zm56.09,63.21h-5.43V145.84H442q8.14,0,12.55,4.61t4.4,13c0,4.9-1.19,8.84-3.58,11.86s-5.85,4.82-10.38,5.43l15.57,28.36h-6.06l-15.12-28H422.61ZM442,176.45c3.63,0,6.38-1,8.29-3a10.8,10.8,0,0,0,2.86-7.73v-4.35a10.69,10.69,0,0,0-2.86-7.65c-1.91-2-4.66-3-8.29-3H422.61v25.81Zm73.88,32.6L509,189.4h-26.9l-6.88,19.65h-5.43l22.37-63.21h7l22.45,63.21Zm-20.2-58h-.38l-11.86,33.6h24.1Zm33.62,58v-4.53h9.25V150.37h-9.25v-4.53h23.92v4.53H544v54.15h9.25v4.53Z"/></g></g></svg>